<?xml version="1.0" standalone="no"?>
<!DOCTYPE svg PUBLIC "-//W3C//DTD SVG 20010904//EN"
 "http://www.w3.org/TR/2001/REC-SVG-20010904/DTD/svg10.dtd">
<svg version="1.0" xmlns="http://www.w3.org/2000/svg"
 width="1920.000000pt" height="800.000000pt" viewBox="0 0 1920.000000 800.000000"
 preserveAspectRatio="xMidYMid meet">

<g transform="translate(0.000000,800.000000) scale(0.100000,-0.100000)"
fill="#000000" stroke="none">
<path d="M10339 7963 c16 -33 348 -653 824 -1541 l141 -262 400 2 400 3 147
330 c81 182 257 576 391 877 134 301 245 548 248 548 6 0 38 -71 501 -1110
l288 -645 400 -3 399 -2 237 442 c131 244 283 526 338 628 55 102 116 217 137
255 21 39 90 168 154 287 64 119 116 219 116 222 0 4 -275 5 -612 4 l-612 -3
-55 -122 c-30 -68 -57 -123 -61 -123 -3 0 -31 56 -61 125 l-54 125 -1114 -3
-1114 -2 -54 -125 c-30 -69 -56 -126 -57 -128 -2 -1 -30 56 -62 128 l-58 130
-613 0 -613 0 19 -37z"/>
</g>
</svg>
