<?xml version="1.0" standalone="no"?>
<!DOCTYPE svg PUBLIC "-//W3C//DTD SVG 20010904//EN"
 "http://www.w3.org/TR/2001/REC-SVG-20010904/DTD/svg10.dtd">
<svg version="1.0" xmlns="http://www.w3.org/2000/svg"
 width="1920.000000pt" height="800.000000pt" viewBox="0 0 1920.000000 800.000000"
 preserveAspectRatio="xMidYMid meet">

<g transform="translate(0.000000,800.000000) scale(0.100000,-0.100000)"
fill="#000000" stroke="none">
<path d="M795 7555 l-790 -423 -3 -616 -2 -615 107 48 c716 322 1469 664 1476
670 4 4 6 311 5 683 l-3 677 -790 -424z"/>
<path d="M0 4555 c0 -608 3 -1105 8 -1105 4 0 361 157 792 349 l785 348 0 408
0 408 -785 348 c-432 192 -788 349 -792 349 -5 0 -8 -497 -8 -1105z"/>
<path d="M2 2589 l3 -611 125 -67 c179 -96 879 -471 1190 -637 l265 -143 3
677 c1 372 -1 679 -5 683 -5 4 -163 77 -353 162 -190 85 -541 243 -780 351
-239 108 -438 196 -442 196 -5 0 -7 -275 -6 -611z"/>
</g>
</svg>
